<svg viewBox="0 0 520 104" fill="none" xmlns="http://www.w3.org/2000/svg">
  <path d="M133.747 72C130.003 72 126.621 71.153 123.602 69.458C120.582 67.74 118.227 65.391 116.536 62.413C114.846 59.436 114 56.131 114 52.5C114 48.869 114.846 45.564 116.536 42.587C118.227 39.609 120.582 37.273 123.602 35.579C126.621 33.859 130.003 33 133.747 33C139.569 33 144.364 34.864 148.132 38.592C149.171 39.633 149.219 40.626 148.277 41.57L147.48 42.369C146.924 42.829 146.429 43.083 145.995 43.131C145.559 43.18 144.992 42.925 144.291 42.369C143.276 41.449 142.274 40.699 141.284 40.117C140.294 39.537 139.327 39.125 138.386 38.883C137.467 38.64 136.682 38.483 136.03 38.41C135.296 38.3324 134.558 38.2963 133.819 38.302C129.761 38.302 126.428 39.645 123.819 42.332C121.234 45.019 119.942 48.433 119.942 52.572C119.942 56.664 121.211 60.041 123.747 62.704C126.307 65.367 129.665 66.698 133.819 66.698C134.665 66.698 135.402 66.662 136.03 66.59C136.682 66.517 137.468 66.36 138.386 66.118C139.327 65.876 140.293 65.464 141.284 64.883C142.275 64.302 143.276 63.551 144.291 62.631C145.354 61.639 146.418 61.639 147.48 62.631L148.277 63.431C149.147 64.301 149.098 65.294 148.132 66.408C144.364 70.136 139.569 72 133.747 72ZM170.203 33.721C174.68 33.721 178.242 35.119 180.89 37.915C183.561 40.71 184.897 44.359 184.897 48.86V68.903C184.897 69.543 184.721 70.053 184.37 70.431C184.041 70.811 183.573 71 182.964 71H181.17C180.561 71 180.082 70.81 179.729 70.431C179.378 70.052 179.202 69.543 179.202 68.903V49.393C179.202 46.195 178.3 43.636 176.496 41.717C174.691 39.798 172.265 38.839 169.219 38.839C166.102 38.839 163.56 39.81 161.591 41.753C159.623 43.672 158.638 46.219 158.638 49.393V68.903C158.638 69.543 158.462 70.053 158.111 70.431C157.759 70.811 157.279 71 156.67 71H154.877C154.267 71 153.787 70.81 153.436 70.431C153.107 70.052 152.943 69.543 152.943 68.903V21.567C152.943 20.525 153.588 19.827 154.877 19.471L156.388 19.115C157.888 18.713 158.638 19.365 158.638 21.07V38.839C161.404 35.427 165.259 33.721 170.203 33.721ZM195.572 54.134C195.887 58.056 197.348 61.154 199.956 63.43C202.587 65.706 205.678 66.843 209.228 66.843C213.452 66.843 217.256 65.439 220.636 62.631C221.844 61.615 222.906 61.615 223.823 62.631L224.584 63.285C225.502 64.253 225.453 65.245 224.44 66.263C222.387 68.248 219.972 69.7 217.195 70.62C214.442 71.54 211.787 72 209.227 72C205.775 72 202.575 71.262 199.63 69.785C196.684 68.284 194.269 66.045 192.385 63.067C190.503 60.065 189.56 56.591 189.56 52.645C189.56 47.029 191.335 42.357 194.884 38.629C198.458 34.876 202.913 33 208.249 33C213.441 33 217.738 34.67 221.143 38.011C222.95 39.7728 224.359 41.9029 225.272 44.257C226.238 46.629 226.72 49.135 226.72 51.774C226.72 52.476 226.48 53.044 225.996 53.48C225.537 53.916 224.934 54.134 224.185 54.134H195.572ZM208.214 38C204.851 38 202.021 38.998 199.722 40.994C197.449 42.964 196.071 45.634 195.586 49H220.695C220.26 45.874 219.123 43.41 217.284 41.607C215.133 39.202 212.109 38 208.214 38ZM248.58 72C244.836 72 241.455 71.153 238.435 69.458C235.416 67.74 233.06 65.391 231.369 62.413C229.679 59.436 228.833 56.131 228.833 52.5C228.833 48.869 229.679 45.564 231.369 42.587C233.06 39.609 235.416 37.273 238.435 35.579C241.455 33.859 244.836 33 248.58 33C254.402 33 259.197 34.864 262.966 38.592C264.004 39.633 264.052 40.626 263.11 41.57L262.312 42.369C261.757 42.829 261.262 43.083 260.828 43.131C260.392 43.18 259.825 42.925 259.125 42.369C258.111 41.449 257.108 40.699 256.117 40.117C255.127 39.537 254.16 39.125 253.219 38.883C252.3 38.64 251.515 38.483 250.863 38.41C250.129 38.3324 249.391 38.2964 248.653 38.302C244.595 38.302 241.261 39.645 238.653 42.332C236.068 45.019 234.775 48.433 234.775 52.572C234.775 56.664 236.044 60.041 238.58 62.704C241.14 65.367 244.498 66.698 248.653 66.698C249.498 66.698 250.235 66.662 250.863 66.59C251.515 66.517 252.301 66.36 253.219 66.118C254.16 65.876 255.126 65.464 256.117 64.883C257.107 64.302 258.111 63.551 259.125 62.631C260.188 61.639 261.25 61.639 262.312 62.631L263.11 63.431C263.979 64.301 263.931 65.294 262.966 66.408C259.197 70.136 254.402 72 248.58 72ZM297.304 68.832C297.733 69.377 297.84 69.875 297.626 70.325C297.435 70.775 297.043 71 296.448 71H293.734C293.044 71 292.473 70.87 292.02 70.609C291.568 70.349 291.068 69.851 290.52 69.116L278.524 54.333L273.561 59.273V68.903C273.561 69.543 273.381 70.053 273.025 70.431C272.668 70.811 272.18 71 271.561 71H269.741C269.122 71 268.633 70.81 268.277 70.431C267.943 70.052 267.777 69.543 267.777 68.903V21.567C267.777 20.525 268.431 19.827 269.741 19.471L271.275 19.115C272.799 18.713 273.56 19.365 273.56 21.07V52.734L290.128 36.138C290.866 35.403 291.436 34.906 291.842 34.645C292.271 34.385 292.806 34.255 293.449 34.255H296.126C296.697 34.255 297.091 34.491 297.305 34.965C297.518 35.415 297.399 35.901 296.947 36.422L282.522 50.708L297.305 68.832H297.304ZM344.166 33C348.635 33 352.166 34.425 354.757 37.274C357.349 40.1 358.644 43.82 358.644 48.432V68.862C358.644 69.515 358.467 70.034 358.11 70.42C357.753 70.807 357.265 71 356.647 71H354.757C354.139 71 353.664 70.807 353.331 70.42C353.022 70.034 352.867 69.515 352.867 68.863V48.975C352.867 45.691 352.011 43.082 350.301 41.151C348.588 39.195 346.211 38.217 343.167 38.217C340.076 38.217 337.532 39.207 335.535 41.187C333.562 43.143 332.575 45.739 332.575 48.975V68.863C332.575 69.515 332.409 70.033 332.076 70.42C331.744 70.807 331.267 71 330.649 71H328.76C328.141 71 327.654 70.807 327.298 70.42C326.965 70.034 326.799 69.515 326.799 68.863V48.975C326.799 45.691 325.93 43.082 324.195 41.151C322.483 39.195 320.105 38.217 317.062 38.217C313.971 38.217 311.427 39.207 309.431 41.187C307.457 43.143 306.47 45.739 306.47 48.975V68.863C306.47 69.515 306.304 70.033 305.971 70.42C305.639 70.807 305.151 71 304.509 71H302.69C302.073 71 301.584 70.807 301.228 70.42C300.895 70.034 300.729 69.515 300.729 68.863V35.68C300.729 35.003 300.895 34.484 301.228 34.122C301.584 33.736 302.073 33.542 302.69 33.542H304.153C304.771 33.542 305.246 33.736 305.579 34.122C305.935 34.484 306.114 35.003 306.114 35.68V38.722C308.872 34.907 312.89 32.999 318.168 32.999C321.14 32.999 323.719 33.651 325.907 34.955C328.094 36.259 329.757 38.083 330.9 40.425C332.183 38.107 333.965 36.295 336.248 34.991C338.531 33.663 341.171 32.999 344.167 32.999L344.166 33ZM380.61 33C385.352 33 389.03 34.32 391.648 36.958C394.287 39.597 395.607 43.361 395.607 48.252V68.95C395.607 70.378 394.988 71.092 393.749 71.092H392.313C391.682 71.092 391.204 70.899 390.876 70.512C390.549 70.124 390.386 69.604 390.386 68.95V66.19C388.872 68.0028 386.983 69.4648 384.849 70.475C382.713 71.4838 380.379 72.0047 378.016 72C373.835 72 370.471 70.899 367.925 68.696C365.379 66.468 364.106 63.527 364.106 59.872C364.106 56.143 365.496 53.142 368.275 50.866C371.078 48.59 374.757 47.453 379.313 47.453C382.957 47.453 386.566 48.336 390.141 50.103V47.162C390.141 44.451 389.242 42.272 387.443 40.626C385.643 38.98 383.273 38.156 380.329 38.156C376.358 38.156 372.749 39.44 369.502 42.006C368.497 42.805 367.586 42.635 366.769 41.497L366.312 40.917C365.893 40.263 365.741 39.645 365.857 39.064C365.997 38.484 366.348 37.999 366.908 37.612C369.291 35.892 371.557 34.695 373.707 34.017C375.855 33.339 378.156 33 380.61 33ZM378.033 67C379.946 67.0103 381.84 66.6306 383.601 65.884C385.374 65.114 386.828 63.985 387.963 62.496C389.121 61.007 389.7 59.308 389.7 57.397V54.977C385.918 52.992 382.313 52 378.886 52C375.93 52 373.543 52.732 371.722 54.196C369.925 55.636 369.027 57.521 369.027 59.853C369.027 62.013 369.854 63.749 371.509 65.064C373.164 66.354 375.339 67 378.034 67H378.033ZM420.839 33C425.316 33 428.877 34.425 431.526 37.274C434.198 40.124 435.533 43.844 435.533 48.432V68.862C435.533 69.515 435.369 70.034 435.04 70.42C434.713 70.807 434.232 71 433.6 71H431.807C431.198 71 430.718 70.807 430.365 70.42C430.014 70.034 429.838 69.515 429.838 68.863V48.975C429.838 45.715 428.936 43.107 427.132 41.151C425.327 39.195 422.901 38.217 419.855 38.217C416.738 38.217 414.183 39.207 412.192 41.187C410.224 43.143 409.239 45.739 409.239 48.975V68.863C409.239 69.515 409.075 70.033 408.747 70.42C408.419 70.807 407.938 71 407.306 71H405.512C404.903 71 404.423 70.807 404.071 70.42C403.743 70.034 403.579 69.515 403.579 68.863V35.68C403.579 35.003 403.743 34.484 404.071 34.122C404.423 33.736 404.903 33.542 405.512 33.542H406.954C407.563 33.542 408.033 33.736 408.36 34.122C408.712 34.484 408.887 35.003 408.887 35.68V38.722C411.606 34.907 415.59 33 420.839 33ZM475.328 33.543C475.963 33.543 476.45 33.735 476.792 34.121C477.157 34.483 477.341 35.001 477.341 35.676V67.751C477.341 70.668 476.828 73.248 475.804 75.49C474.805 77.756 473.428 79.564 471.67 80.914C469.904 82.2696 467.91 83.2985 465.783 83.952C463.612 84.65 461.271 85 458.759 85C455.125 85 451.907 84.35 449.103 83.047C446.323 81.77 443.8 79.805 441.532 77.153C440.484 75.972 440.605 74.887 441.897 73.899L442.52 73.464C443.69 72.621 444.713 72.717 445.592 73.754C447.275 75.851 449.152 77.406 451.224 78.419C453.297 79.456 455.833 79.974 458.833 79.974C462.611 79.974 465.659 78.961 467.977 76.936C470.317 74.936 471.487 71.994 471.487 68.113V62.797C468.171 66.245 463.856 67.968 458.539 67.968C453.248 67.968 448.859 66.293 445.372 62.942C441.909 59.591 440.179 55.444 440.179 50.502C440.179 45.536 441.922 41.377 445.408 38.027C448.896 34.675 453.297 33 458.612 33C464.074 33 468.488 34.856 471.853 38.569V35.676C471.853 34.254 472.512 33.543 473.828 33.543H475.327H475.328ZM458.76 63C462.491 63 465.515 61.852 467.835 59.554C470.154 57.233 471.314 54.251 471.314 50.61C471.314 46.92 470.13 43.902 467.763 41.556C465.419 39.186 462.395 38 458.688 38C455.005 38 452.005 39.173 449.685 41.52C447.366 43.865 446.206 46.871 446.206 50.537C446.206 54.202 447.354 57.197 449.649 59.517C451.969 61.84 455.005 63 458.76 63ZM510.484 69.458C507.503 71.153 504.176 72 500.503 72C496.831 72 493.504 71.153 490.523 69.458C487.542 67.74 485.205 65.391 483.511 62.413C481.842 59.436 481.007 56.131 481.007 52.5C481.007 48.869 481.842 45.564 483.511 42.587C485.205 39.609 487.542 37.273 490.523 35.579C493.504 33.859 496.831 33 500.503 33C504.176 33 507.503 33.86 510.485 35.579C513.468 37.273 515.792 39.609 517.459 42.587C519.154 45.564 520 48.869 520 52.5C520 56.131 519.154 59.436 517.459 62.413C515.792 65.391 513.468 67.74 510.485 69.458H510.484ZM490.797 63.026C493.324 65.676 496.56 67 500.504 67C504.449 67 507.684 65.675 510.212 63.026C512.74 60.376 514.001 57.034 514.001 53C514.001 48.966 512.74 45.624 510.212 42.975C507.685 40.325 504.449 39 500.504 39C496.607 39 493.384 40.325 490.832 42.975C488.282 45.624 487.006 48.965 487.006 53C487.006 57.034 488.27 60.376 490.797 63.026Z" fill="#fff"/>
  <mask id="mask0_1_2" style="mask-type:luminance" maskUnits="userSpaceOnUse" x="0" y="0" width="104" height="104">
    <path d="M104 52C104 80.7188 80.7188 104 52 104C23.2812 104 0 80.7188 0 52C0 23.2812 23.2812 0 52 0C80.7188 0 104 23.2812 104 52Z" fill="white"/>
  </mask>
  <g mask="url(#mask0_1_2)">
    <path d="M91.3391 -18.4826C53.2335 -40.4569 -0.293926 -19.1098 -28.2175 29.1969C-56.141 77.504 -47.887 134.478 -9.78054 156.452L91.3391 -18.4826Z" fill="#F74D3B"/>
    <path d="M7.23477 126.552C45.3404 148.526 98.8674 127.18 126.791 78.8727C154.715 30.5656 146.46 -26.4088 108.354 -48.3826L7.23477 126.552Z" fill="#FFAF3F"/>
    <path d="M124.251 51.9032C76.7375 54.2057 37.5856 15.0538 39.8881 -32.4598C87.4016 -34.7622 126.554 4.3897 124.251 51.9032Z" fill="#7BAB93"/>
  </g>
</svg>
