<svg class="h-10 w-auto" viewBox="0 0 545 157" xmlns="http://www.w3.org/2000/svg">
  <g id="Group">
    <path
      id="Shape"
      fill="#0ea5e9"
      fill-rule="evenodd"
      stroke="none"
      d="M 0 157 L 0 129 L 14.045455 129 C 27.624578 129 28.172403 129.081497 30.545454 131.454544 C 32.791515 133.700607 33 134.681259 33 143 C 33 151.318741 32.791515 152.299393 30.545454 154.545456 C 28.172403 156.918503 27.624578 157 14.045455 157 L 0 157 Z"
    />
    <path
      id="path1"
      fill="#f97316"
      fill-rule="evenodd"
      stroke="none"
      d="M 103 29 C 91.496071 29 90.789932 28.880844 88.454544 26.545456 C 86.208488 24.299393 86 23.318741 86 15 C 86 6.681259 86.208488 5.700607 88.454544 3.454544 C 90.789932 1.119156 91.496071 1 103 1 C 114.503929 1 115.210068 1.119156 117.545456 3.454544 C 119.791512 5.700607 120 6.681259 120 15 C 120 23.318741 119.791512 24.299393 117.545456 26.545456 C 115.210068 28.880844 114.503929 29 103 29 Z"
    />
    <path
      id="path2"
      fill="#a3e635"
      fill-rule="evenodd"
      stroke="none"
      d="M 43.5 30.5 C 16.375 30.151443 6.5875 29.786369 4.25 29.463852 C 0 28.877457 0 28.877457 0 14.938721 L 0 1 L 33.25 1.01474 C 57.933723 1.025681 67.144081 1.353378 69 2.286667 C 70.569977 3.076157 71.944939 5.023727 72.696037 7.521927 C 73.526543 10.284225 74.100822 29.174164 74.575111 69.330917 C 75.062828 110.624321 75.578697 127.26384 76.379074 127.518547 C 76.995583 127.714737 85.935669 128.251495 96.245934 128.711334 C 113.731461 129.491196 115.142136 129.697693 117.226944 131.782501 C 119.051941 133.607498 119.53167 135.396774 119.841614 141.534653 C 120.067566 146.009018 119.733444 150.229309 119.016167 151.960968 C 118.279388 153.739716 116.624092 155.283997 114.75634 155.935089 C 112.844482 156.601578 100.626633 156.976288 82.100777 156.936615 C 65.820351 156.901749 51.516918 156.477127 50.315372 155.993027 C 49.113827 155.508911 47.538826 154.074936 46.815372 152.806412 C 45.801178 151.028091 45.271034 136.761948 44.5 90.5 L 43.5 30.5 Z"
    />
    <path
      id="in--oicingto"
      fill-rule="evenodd"
      stroke="none"
      d="M 544.128906 86.382813 C 544.128906 92.781281 542.488281 97.832016 539.207031 101.535156 C 535.925781 105.238297 531.53125 107.089844 526.023438 107.089844 C 520.46875 107.089844 516.056641 105.238297 512.787109 101.535156 C 509.517548 97.832016 507.882813 92.781281 507.882813 86.382813 C 507.882813 79.984344 509.517548 74.92775 512.787109 71.212891 C 516.056641 67.498032 520.46875 65.640625 526.023438 65.640625 C 531.53125 65.640625 535.925781 67.498032 539.207031 71.212891 C 542.488281 74.92775 544.128906 79.984344 544.128906 86.382813 Z M 537.308594 86.382813 C 537.308594 81.296852 536.3125 77.517593 534.320313 75.044922 C 532.328125 72.57225 529.5625 71.335938 526.023438 71.335938 C 522.4375 71.335938 519.654297 72.57225 517.673828 75.044922 C 515.693359 77.517593 514.703125 81.296852 514.703125 86.382813 C 514.703125 91.30471 515.699219 95.037094 517.691406 97.580078 C 519.683594 100.123062 522.460938 101.394531 526.023438 101.394531 C 529.539063 101.394531 532.298828 100.134781 534.302734 97.615234 C 536.306641 95.095688 537.308594 91.351585 537.308594 86.382813 Z M 502.679688 105.648438 C 501.4375 105.976563 500.083984 106.246094 498.619141 106.457031 C 497.154297 106.667969 495.847656 106.773438 494.699219 106.773438 C 490.691376 106.773438 487.644531 105.695328 485.558594 103.539063 C 483.472656 101.382797 482.429688 97.925804 482.429688 93.167969 L 482.429688 72.285156 L 477.964844 72.285156 L 477.964844 66.730469 L 482.429688 66.730469 L 482.429688 55.445313 L 489.039063 55.445313 L 489.039063 66.730469 L 502.679688 66.730469 L 502.679688 72.285156 L 489.039063 72.285156 L 489.039063 90.179688 C 489.039063 92.242195 489.085938 93.853508 489.179688 95.013672 C 489.273438 96.173836 489.601563 97.257813 490.164063 98.265625 C 490.679688 99.203125 491.388672 99.888672 492.291016 100.322266 C 493.193359 100.755859 494.570313 100.972656 496.421875 100.972656 C 497.5 100.972656 498.625 100.814453 499.796875 100.498047 C 500.96875 100.181641 501.8125 99.917969 502.328125 99.707031 L 502.679688 99.707031 Z M 466.890625 106 L 458.488281 106 L 458.488281 95.980469 L 466.890625 95.980469 Z M 443.617188 101.464844 C 443.617188 105.167984 443.089844 108.285141 442.035156 110.816406 C 440.980469 113.347672 439.503906 115.328117 437.605469 116.757813 C 435.707031 118.210945 433.416016 119.259766 430.732422 119.904297 C 428.048828 120.548828 425.019562 120.871094 421.644531 120.871094 C 418.902344 120.871094 416.201172 120.707031 413.541016 120.378906 C 410.880859 120.050781 408.578125 119.652344 406.632813 119.183594 L 406.632813 109.304688 L 408.179688 109.304688 C 409.726563 109.914063 411.613281 110.470703 413.839844 110.974609 C 416.066406 111.478516 418.058594 111.730469 419.816406 111.730469 C 422.160156 111.730469 424.064453 111.513672 425.529297 111.080078 C 426.994141 110.646484 428.113281 110.03125 428.886719 109.234375 C 429.613281 108.484375 430.140625 107.523445 430.46875 106.351563 C 430.796875 105.17968 430.960938 103.773445 430.960938 102.132813 L 430.960938 101.394531 C 429.4375 102.636726 427.75 103.621094 425.898438 104.347656 C 424.046875 105.074219 421.984375 105.4375 419.710938 105.4375 C 414.179657 105.4375 409.914063 103.773453 406.914063 100.445313 C 403.914063 97.117172 402.414063 92.054718 402.414063 85.257813 C 402.414063 81.999985 402.871094 79.187515 403.785156 76.820313 C 404.699219 74.45311 405.988281 72.390633 407.652344 70.632813 C 409.199219 68.99218 411.103516 67.714851 413.365234 66.800781 C 415.626953 65.886711 417.941406 65.429688 420.308594 65.429688 C 422.441406 65.429688 424.380859 65.681641 426.126953 66.185547 C 427.873047 66.689453 429.460938 67.386711 430.890625 68.277344 L 431.347656 66.519531 L 443.617188 66.519531 Z M 430.960938 93.554688 L 430.960938 75.660156 C 430.234375 75.355469 429.34375 75.115234 428.289063 74.939453 C 427.234375 74.763672 426.285156 74.675781 425.441406 74.675781 C 422.113251 74.675781 419.617188 75.630852 417.953125 77.541016 C 416.289063 79.45118 415.457031 82.117172 415.457031 85.539063 C 415.457031 89.335953 416.166016 91.984367 417.583984 93.484375 C 419.001953 94.984383 421.105469 95.734375 423.894531 95.734375 C 425.160156 95.734375 426.402344 95.535156 427.621094 95.136719 C 428.839844 94.738281 429.953125 94.210938 430.960938 93.554688 Z M 393.589844 106 L 380.863281 106 L 380.863281 86.417969 C 380.863281 84.824211 380.78125 83.236336 380.617188 81.654297 C 380.453125 80.072258 380.171875 78.90625 379.773438 78.15625 C 379.304688 77.289055 378.619141 76.65625 377.716797 76.257813 C 376.814453 75.859375 375.554688 75.660156 373.9375 75.660156 C 372.789063 75.660156 371.623047 75.847656 370.439453 76.222656 C 369.255859 76.597656 367.972656 77.195305 366.589844 78.015625 L 366.589844 106 L 353.933594 106 L 353.933594 66.519531 L 366.589844 66.519531 L 366.589844 70.878906 C 368.839844 69.121086 371.001953 67.773445 373.076172 66.835938 C 375.150391 65.89843 377.453125 65.429688 379.984375 65.429688 C 384.250031 65.429688 387.583984 66.67186 389.986328 69.15625 C 392.388672 71.64064 393.589844 75.355446 393.589844 80.300781 Z M 341.980469 106 L 329.324219 106 L 329.324219 66.519531 L 341.980469 66.519531 Z M 342.332031 60.894531 L 328.972656 60.894531 L 328.972656 51.296875 L 342.332031 51.296875 Z M 307.527344 107.054688 C 304.082001 107.054688 300.935547 106.644531 298.087891 105.824219 C 295.240234 105.003906 292.761719 103.738289 290.652344 102.027344 C 288.566406 100.316399 286.949219 98.160172 285.800781 95.558594 C 284.652344 92.957016 284.078125 89.910172 284.078125 86.417969 C 284.078125 82.738266 284.693359 79.562515 285.923828 76.890625 C 287.154297 74.218735 288.871094 72.003914 291.074219 70.246094 C 293.207031 68.582024 295.667969 67.363289 298.457031 66.589844 C 301.246094 65.816399 304.140625 65.429688 307.140625 65.429688 C 309.835938 65.429688 312.320313 65.722656 314.59375 66.308594 C 316.867188 66.894531 318.988281 67.656242 320.957031 68.59375 L 320.957031 79.386719 L 319.164063 79.386719 C 318.671875 78.964844 318.080078 78.472656 317.388672 77.910156 C 316.697266 77.347656 315.847656 76.796875 314.839844 76.257813 C 313.878906 75.742188 312.824219 75.314453 311.675781 74.974609 C 310.527344 74.634766 309.191406 74.464844 307.667969 74.464844 C 304.292938 74.464844 301.697266 75.537102 299.880859 77.681641 C 298.064453 79.82618 297.15625 82.738266 297.15625 86.417969 C 297.15625 90.214859 298.087891 93.097649 299.951172 95.066406 C 301.814453 97.035172 304.457001 98.019531 307.878906 98.019531 C 309.472656 98.019531 310.908203 97.837891 312.185547 97.474609 C 313.462891 97.111328 314.523438 96.683594 315.367188 96.191406 C 316.164063 95.722656 316.867188 95.230469 317.476563 94.714844 C 318.085938 94.199219 318.648438 93.695313 319.164063 93.203125 L 320.957031 93.203125 L 320.957031 103.996094 C 318.964844 104.933594 316.884766 105.677734 314.716797 106.228516 C 312.548828 106.779297 310.152344 107.054688 307.527344 107.054688 Z M 275.007813 106 L 262.351563 106 L 262.351563 66.519531 L 275.007813 66.519531 Z M 275.359375 60.894531 L 262 60.894531 L 262 51.296875 L 275.359375 51.296875 Z M 253.28125 86.277344 C 253.28125 92.769562 251.388687 97.88475 247.603516 101.623047 C 243.818344 105.361343 238.503937 107.230469 231.660156 107.230469 C 224.816376 107.230469 219.501968 105.361343 215.716797 101.623047 C 211.931625 97.88475 210.039063 92.769562 210.039063 86.277344 C 210.039063 79.738251 211.943344 74.605484 215.751953 70.878906 C 219.560562 67.152328 224.863251 65.289063 231.660156 65.289063 C 238.550812 65.289063 243.876938 67.164047 247.638672 70.914063 C 251.400406 74.664078 253.28125 79.785126 253.28125 86.277344 Z M 237.707031 95.875 C 238.527344 94.86718 239.142578 93.654305 239.552734 92.236328 C 239.962891 90.818352 240.167969 88.855484 240.167969 86.347656 C 240.167969 84.027328 239.957031 82.082039 239.535156 80.511719 C 239.113281 78.941399 238.527344 77.687508 237.777344 76.75 C 237.027344 75.789055 236.125 75.109375 235.070313 74.710938 C 234.015625 74.3125 232.878906 74.113281 231.660156 74.113281 C 230.441406 74.113281 229.357422 74.277344 228.408203 74.605469 C 227.458984 74.933594 226.550781 75.589836 225.683594 76.574219 C 224.910156 77.488289 224.294922 78.74218 223.837891 80.335938 C 223.380859 81.929695 223.152344 83.933578 223.152344 86.347656 C 223.152344 88.503914 223.351563 90.373039 223.75 91.955078 C 224.148438 93.537117 224.734375 94.808586 225.507813 95.769531 C 226.257813 96.683594 227.154297 97.351563 228.197266 97.773438 C 229.240234 98.195313 230.429688 98.40625 231.765625 98.40625 C 232.914063 98.40625 234.009766 98.212891 235.052734 97.826172 C 236.095703 97.439453 236.980469 96.789063 237.707031 95.875 Z M 150.097656 106 L 143.488281 106 L 143.488281 83.640625 C 143.488281 81.83593 143.382813 80.142586 143.171875 78.560547 C 142.960938 76.978508 142.574219 75.742195 142.011719 74.851563 C 141.425781 73.86718 140.582031 73.134766 139.480469 72.654297 C 138.378906 72.173828 136.949234 71.933594 135.191406 71.933594 C 133.386703 71.933594 131.500015 72.378899 129.53125 73.269531 C 127.562485 74.160164 125.675789 75.296867 123.871094 76.679688 L 123.871094 106 L 117.261719 106 L 117.261719 66.730469 L 123.871094 66.730469 L 123.871094 71.089844 C 125.933601 69.378899 128.066391 68.042976 130.269531 67.082031 C 132.472672 66.121086 134.73436 65.640625 137.054688 65.640625 C 141.29689 65.640625 144.531235 66.917953 146.757813 69.472656 C 148.98439 72.027359 150.097656 75.707008 150.097656 80.511719 Z M 104.605469 60.15625 L 97.152344 60.15625 L 97.152344 53.300781 L 104.605469 53.300781 Z M 104.183594 106 L 97.574219 106 L 97.574219 66.730469 L 104.183594 66.730469 Z"
    />
    <path
      id="V"
      fill-rule="evenodd"
      stroke="none"
      d="M 210 51 L 189.169632 109 L 172.674118 109 L 151.84375 51 L 167.303497 51 L 181.113678 91.744125 L 194.923874 51 Z"
    />
  </g>
</svg>
