<svg xmlns="http://www.w3.org/2000/svg" width="495" height="105" viewBox="0 0 495 105"><title>logo-dark@1.5x</title><g fill="none" fill-rule="nonzero"><path fill="#F74D3B" d="M55 34.486c-15.399-8.858-37.029-.253-48.313 19.219C-4.597 73.177-1.261 96.143 14.137 105L55 34.486Z"/><path fill="#FFAF3F" d="M22 92.514c15.399 8.858 37.029.253 48.313-19.219C81.597 53.823 78.26 30.857 62.863 22L22 92.514Z"/><path fill="#7BAB93" d="M43.025 28.975c-.599-12.362 9.588-22.549 21.95-21.95.599 12.362-9.588 22.549-21.95 21.95ZM41.968 27.968C26.234 28.73 13.27 15.766 14.032.032 29.766-.73 42.73 12.234 41.968 27.968Z"/><path fill="#000" d="M107.776 82c-3.75 0-7.137-.847-10.16-2.542-3.024-1.718-5.383-4.067-7.076-7.045C88.847 69.436 88 66.131 88 62.5c0-3.631.847-6.936 2.54-9.913 1.693-2.978 4.052-5.314 7.076-7.008 3.023-1.72 6.41-2.579 10.16-2.579 5.83 0 10.632 1.864 14.406 5.592 1.04 1.041 1.088 2.034.145 2.978l-.798.799c-.557.46-1.053.714-1.488.762-.436.049-1.004-.206-1.706-.762-1.016-.92-2.02-1.67-3.011-2.252-.992-.58-1.96-.992-2.903-1.234-.92-.243-1.706-.4-2.359-.473a19.651 19.651 0 0 0-2.214-.108c-4.064 0-7.402 1.343-10.015 4.03-2.588 2.687-3.882 6.101-3.882 10.24 0 4.092 1.27 7.469 3.81 10.132 2.564 2.663 5.927 3.994 10.087 3.994.847 0 1.585-.036 2.214-.108.653-.073 1.44-.23 2.359-.472.943-.242 1.91-.654 2.903-1.235.992-.581 1.995-1.332 3.011-2.252 1.065-.992 2.13-.992 3.194 0l.798.8c.871.87.822 1.863-.145 2.977-3.774 3.728-8.576 5.592-14.406 5.592ZM144.285 43.721c4.483 0 8.05 1.398 10.702 4.194C157.662 50.71 159 54.359 159 58.86v20.043c0 .64-.176 1.15-.528 1.528-.329.38-.798.569-1.408.569h-1.796c-.61 0-1.09-.19-1.443-.569-.352-.379-.528-.888-.528-1.528v-19.51c0-3.198-.904-5.757-2.71-7.676-1.808-1.919-4.237-2.878-7.288-2.878-3.121 0-5.667.971-7.639 2.914-1.971 1.919-2.957 4.466-2.957 7.64v19.51c0 .64-.176 1.15-.528 1.528-.352.38-.833.569-1.443.569h-1.796c-.61 0-1.091-.19-1.443-.569-.329-.379-.493-.888-.493-1.528V31.567c0-1.042.646-1.74 1.936-2.096l1.514-.356c1.502-.402 2.253.25 2.253 1.955v17.769c2.77-3.412 6.63-5.118 11.582-5.118ZM169.691 64.134c.315 3.922 1.778 7.02 4.39 9.296 2.635 2.276 5.73 3.413 9.285 3.413 4.231 0 8.04-1.404 11.425-4.212 1.21-1.016 2.273-1.016 3.192 0l.762.654c.919.968.87 1.96-.145 2.978-2.056 1.985-4.474 3.437-7.255 4.357-2.757.92-5.416 1.38-7.98 1.38-3.457 0-6.661-.738-9.611-2.215-2.95-1.501-5.368-3.74-7.255-6.718-1.885-3.002-2.829-6.476-2.829-10.422 0-5.616 1.777-10.288 5.332-14.016 3.579-3.753 8.04-5.629 13.384-5.629 5.2 0 9.503 1.67 12.913 5.011a17.633 17.633 0 0 1 4.135 6.246c.967 2.372 1.45 4.878 1.45 7.517 0 .702-.241 1.27-.725 1.706-.46.436-1.064.654-1.814.654h-28.654ZM182.351 48c-3.368 0-6.202.998-8.504 2.994-2.277 1.97-3.657 4.64-4.142 8.006h25.145c-.436-3.126-1.574-5.59-3.416-7.393C189.28 49.202 186.251 48 182.35 48ZM222.776 82c-3.75 0-7.136-.847-10.16-2.542-3.024-1.718-5.383-4.067-7.076-7.045-1.693-2.977-2.54-6.282-2.54-9.913 0-3.631.847-6.936 2.54-9.913 1.693-2.978 4.052-5.314 7.076-7.008 3.024-1.72 6.41-2.579 10.16-2.579 5.83 0 10.632 1.864 14.406 5.592 1.04 1.041 1.088 2.034.145 2.978l-.799.799c-.556.46-1.052.714-1.487.762-.436.049-1.004-.206-1.705-.762-1.016-.92-2.02-1.67-3.012-2.252-.992-.58-1.96-.992-2.903-1.234-.92-.243-1.706-.4-2.359-.473a19.657 19.657 0 0 0-2.213-.108c-4.064 0-7.403 1.343-10.015 4.03-2.589 2.687-3.883 6.101-3.883 10.24 0 4.092 1.27 7.469 3.81 10.132 2.564 2.663 5.927 3.994 10.088 3.994.846 0 1.584-.036 2.213-.108.653-.073 1.44-.23 2.359-.472.943-.242 1.91-.654 2.903-1.235.991-.581 1.996-1.332 3.012-2.252 1.064-.992 2.128-.992 3.192 0l.799.8c.87.87.822 1.863-.145 2.977-3.774 3.728-8.576 5.592-14.406 5.592ZM271.57 78.832c.43.545.537 1.043.323 1.493-.191.45-.584.675-1.18.675h-2.718c-.691 0-1.263-.13-1.716-.391-.453-.26-.954-.758-1.502-1.493l-12.014-14.783-4.97 4.94v9.63c0 .64-.18 1.15-.537 1.528-.357.38-.846.569-1.466.569h-1.823c-.62 0-1.109-.19-1.466-.569-.334-.379-.501-.888-.501-1.528V31.567c0-1.042.655-1.74 1.967-2.096l1.537-.356c1.526-.402 2.288.25 2.288 1.955v31.664l16.592-16.596c.739-.735 1.31-1.232 1.716-1.493.43-.26.966-.39 1.61-.39h2.681c.572 0 .966.236 1.18.71.214.45.095.936-.358 1.457l-14.446 14.286 14.804 18.124ZM318.5 43c4.476 0 8.012 1.425 10.607 4.274C331.703 50.1 333 53.82 333 58.432v20.43c0 .653-.178 1.172-.535 1.558-.358.387-.846.58-1.465.58h-1.893c-.619 0-1.095-.193-1.428-.58-.31-.386-.465-.905-.465-1.557V58.975c0-3.284-.857-5.893-2.57-7.824-1.715-1.956-4.096-2.934-7.144-2.934-3.095 0-5.643.99-7.643 2.97-1.976 1.956-2.964 4.552-2.964 7.788v19.888c0 .652-.167 1.17-.5 1.557-.333.387-.81.58-1.429.58h-1.892c-.62 0-1.108-.193-1.464-.58-.334-.386-.5-.905-.5-1.557V58.975c0-3.284-.87-5.893-2.608-7.824-1.714-1.956-4.095-2.934-7.143-2.934-3.095 0-5.643.99-7.642 2.97-1.977 1.956-2.965 4.552-2.965 7.788v19.888c0 .652-.167 1.17-.5 1.557-.333.387-.821.58-1.464.58h-1.822c-.618 0-1.107-.193-1.464-.58-.333-.386-.5-.905-.5-1.557V45.68c0-.677.167-1.196.5-1.558.357-.386.846-.58 1.464-.58h1.465c.619 0 1.095.194 1.428.58.357.362.536.881.536 1.558v3.042c2.762-3.815 6.786-5.723 12.072-5.723 2.976 0 5.559.652 7.75 1.956 2.19 1.304 3.856 3.128 5 5.47 1.285-2.318 3.07-4.13 5.356-5.434 2.286-1.328 4.93-1.992 7.93-1.992ZM354.997 43c4.749 0 8.433 1.32 11.054 3.958 2.643 2.639 3.965 6.403 3.965 11.294V78.95c0 1.428-.62 2.142-1.86 2.142h-1.439c-.631 0-1.11-.193-1.439-.58-.327-.388-.49-.908-.49-1.562v-2.76a16.33 16.33 0 0 1-5.545 4.285A15.973 15.973 0 0 1 352.4 82c-4.187 0-7.556-1.101-10.106-3.304-2.55-2.228-3.825-5.169-3.825-8.824 0-3.729 1.392-6.73 4.176-9.006 2.807-2.276 6.491-3.413 11.054-3.413 3.649 0 7.263.883 10.843 2.65v-2.941c0-2.711-.9-4.89-2.702-6.536s-4.176-2.47-7.124-2.47c-3.977 0-7.591 1.284-10.843 3.85-1.006.799-1.918.629-2.737-.509l-.457-.58c-.42-.654-.572-1.272-.456-1.853.14-.58.492-1.065 1.053-1.452 2.386-1.72 4.655-2.917 6.808-3.595 2.152-.678 4.456-1.017 6.913-1.017Zm-2.58 34a14.11 14.11 0 0 0 5.576-1.116c1.775-.77 3.231-1.899 4.368-3.388 1.16-1.489 1.74-3.188 1.74-5.099v-2.42c-3.788-1.985-7.398-2.977-10.83-2.977-2.96 0-5.351.732-7.174 2.196-1.8 1.44-2.699 3.325-2.699 5.657 0 2.16.828 3.896 2.485 5.211 1.658 1.29 3.836 1.936 6.535 1.936ZM395.285 43c4.483 0 8.05 1.425 10.702 4.274 2.676 2.85 4.013 6.57 4.013 11.158v20.43c0 .653-.164 1.172-.493 1.558-.328.387-.81.58-1.443.58h-1.795c-.61 0-1.091-.193-1.444-.58-.352-.386-.528-.905-.528-1.557V58.975c0-3.26-.903-5.868-2.71-7.824-1.808-1.956-4.237-2.934-7.288-2.934-3.121 0-5.68.99-7.674 2.97-1.971 1.956-2.957 4.552-2.957 7.788v19.888c0 .652-.164 1.17-.493 1.557-.328.387-.81.58-1.443.58h-1.796c-.61 0-1.091-.193-1.443-.58-.329-.386-.493-.905-.493-1.557V45.68c0-.677.164-1.196.493-1.558.352-.386.833-.58 1.443-.58h1.444c.61 0 1.08.194 1.408.58.352.362.528.881.528 1.558v3.042c2.722-3.815 6.712-5.723 11.969-5.723ZM449.853 43.543c.636 0 1.124.192 1.466.578.366.362.55.88.55 1.555v32.075c0 2.917-.514 5.497-1.539 7.739-1.001 2.266-2.38 4.074-4.14 5.424a18.714 18.714 0 0 1-5.896 3.038C438.12 94.65 435.776 95 433.26 95c-3.639 0-6.862-.65-9.67-1.953-2.784-1.277-5.311-3.242-7.582-5.894-1.05-1.181-.928-2.266.366-3.254l.623-.435c1.172-.843 2.197-.747 3.077.29 1.685 2.097 3.565 3.652 5.64 4.665 2.076 1.037 4.616 1.555 7.62 1.555 3.784 0 6.836-1.013 9.157-3.038 2.344-2 3.516-4.942 3.516-8.823v-5.316c-3.321 3.448-7.643 5.171-12.967 5.171-5.299 0-9.694-1.675-13.186-5.026-3.468-3.351-5.201-7.498-5.201-12.44 0-4.966 1.746-9.125 5.237-12.475 3.493-3.352 7.9-5.027 13.223-5.027 5.47 0 9.89 1.856 13.26 5.569v-2.893c0-1.422.66-2.133 1.978-2.133h1.501ZM433.261 73c3.736 0 6.765-1.148 9.088-3.446 2.323-2.321 3.484-5.303 3.484-8.944 0-3.69-1.185-6.708-3.556-9.054-2.347-2.37-5.376-3.556-9.088-3.556-3.688 0-6.693 1.173-9.016 3.52-2.323 2.345-3.484 5.351-3.484 9.017 0 3.665 1.149 6.66 3.448 8.98C426.46 71.84 429.5 73 433.26 73ZM485.06 79.458c-2.985 1.695-6.317 2.542-9.995 2.542-3.678 0-7.01-.847-9.995-2.542-2.985-1.718-5.326-4.067-7.022-7.045-1.671-2.977-2.508-6.282-2.508-9.913 0-3.631.837-6.936 2.508-9.913 1.696-2.978 4.037-5.314 7.022-7.008 2.985-1.72 6.317-2.579 9.995-2.579 3.678 0 7.01.86 9.996 2.579 2.987 1.694 5.315 4.03 6.984 7.008 1.698 2.977 2.545 6.282 2.545 9.913 0 3.631-.847 6.936-2.545 9.913-1.669 2.978-3.997 5.327-6.984 7.045Zm-19.715-6.432c2.53 2.65 5.771 3.974 9.721 3.974s7.19-1.325 9.722-3.974c2.531-2.65 3.794-5.992 3.794-10.026s-1.263-7.376-3.794-10.025c-2.531-2.65-5.772-3.975-9.722-3.975-3.903 0-7.131 1.325-9.686 3.975-2.554 2.649-3.832 5.99-3.832 10.025 0 4.034 1.266 7.376 3.797 10.026Z"/></g></svg>
